<svg id="Component_5_2" data-name="Component 5 – 2" xmlns="http://www.w3.org/2000/svg" xmlns:xlink="http://www.w3.org/1999/xlink" width="1444.476" height="757.305" viewBox="0 0 1444.476 757.305">
  <defs>
    <linearGradient id="linear-gradient" x1="0.5" x2="0.5" y2="1" gradientUnits="objectBoundingBox">
      <stop offset="0" stop-color="#fff4f6"/>
      <stop offset="1" stop-color="#ffb0bf"/>
    </linearGradient>
  </defs>
  <path id="Path_4" data-name="Path 4" d="M0,679.15s7.642,5.807,10.742,19.106c3.558,15.262,2.981,39.093,7.46,48.409,8.233,17.126,18.585,6.6,20.741,3.487s6.54-41.6,11.219-47.813,9.535-7.362,12.063-10.256,10.122-13.221,18.49-6.9,24.874,34.968,32.792,37.543,10.944.532,14.919-1.092,9.561-6.583,11.407-16.265S135.976,620,158.644,608.2s37.911,17.156,55.136,49.537c4.226,11.88,3.681,23.653,4.716,34.5,2.054,21.532,2.668,38.979,9.048,45.483,4.263,4.345,9.313,3.224,11.1,2.966a32.016,32.016,0,0,0,8.109-2.966c18.832-8.647-11.277-77.619,23.29-93.536s27.03,62.4,35.257,73.861,18.776,7.821,22.445,1.623-.808-45.465,12.118-51.536,8.839-13.259,20.285-16.114,16.479,10.627,16.479,10.627,10.976,19.111,18.491,25.912,9.033,3.265,11.979,2.637,4.068,1.3,7.032,0c1.153-.507,3.464-16.065,4.21-35.609,1.153-30.211,3.135-69.755,26.612-73.362,14.909-2.291,30.979,13.572,40.331,36.88,14.629,36.459,9.172,70.508,18.285,87.722s22.451,9,24.454,4.47c1.009-2.283,2.291-23.168,4.055-44.624,1.695-20.616,3.758-41.778,18.725-47.568,30.175-11.673,32.193,69.6,38.28,77.544s14.7,4.319,17.314,1.433,7.228-39.847,10.5-49.142c1.84-5.224,7.726-7.48,12.449-11.209,3.279-2.591,4.814-6.76,10.272-9.739,12.459-6.8,23.8,17.745,29.072,27.033s13.4,18.387,20.954,10.474S698.855,651.149,706.9,628s14.311-42.667,31.1-42.667S766.9,602.143,770.211,628s3.648,64.667,21.086,64.519,10.458-83.222,23.438-88.669,34.9,20.221,48.412,17.055,10.4-49.346,37.108-49.794,48.6,55.491,69.714,48-7.658-74.143,14.737-77.959,44.763,73.209,74.844,62.7,14.14-99.645,45.48-104.749,45.353,84.335,79.878,84.335,31.566-81.622,58.222-84.335,30.345,90.964,48.4,73.483,3.792-125.037,23.823-143.408,30.5,69.925,56.3,69.925,25.473-63.975,46.927-69.925,25.891,46.128,25.891,46.128l-.923-476.4H0Z" transform="translate(0 1.094)" fill="url(#linear-gradient)"/>
</svg>
